<svg height="48" viewBox="0 0 48 48" width="48" xmlns="http://www.w3.org/2000/svg"><g fill="none" fill-rule="evenodd"><path d="m0 0h48v48h-48z"/><g fill-rule="nonzero"><path d="m17.859 14.797a3.5 3.5 0 1 1 5.282-4.594l10 11.5a3.5 3.5 0 0 1 0 4.594l-10 11.5a3.5 3.5 0 1 1 -5.282-4.594l8.003-9.203z" fill="#000" opacity=".08"/><path d="m18.613 14.14a2.5 2.5 0 0 1 3.774-3.28l10 11.5a2.5 2.5 0 0 1 0 3.28l-10 11.5a2.5 2.5 0 0 1 -3.774-3.28l8.574-9.86z" fill="#000" fill-opacity=".12"/><path d="m19.368 13.484a1.5 1.5 0 0 1 2.264-1.968l10 11.5a1.5 1.5 0 0 1 0 1.968l-10 11.5a1.5 1.5 0 0 1 -2.264-1.968l9.144-10.516z" fill="#fff"/></g></g></svg>